<svg xmlns="http://www.w3.org/2000/svg" width="200" height="200" viewBox="0 0 200 200"><path d="M170.71 29.29C151.824 10.4 126.71 0 100 0S48.177 10.402 29.29 29.29C10.402 48.176 0 73.29 0 100s10.402 51.823 29.29 70.71C48.176 189.6 73.29 200 100 200c26.71 0 51.824-10.4 70.71-29.29C189.6 151.824 200 126.71 200 100S189.6 48.177 170.71 29.29zm-4.693 136.593c-17.6 17.598-40.997 27.29-65.884 27.29-51.376 0-93.173-41.797-93.173-93.173 0-51.375 41.797-93.173 93.173-93.173 23.77 0 46.403 8.95 63.73 25.205.918.86.964 2.3.105 3.217-.86.915-2.3.962-3.217.102-16.48-15.46-38.008-23.973-60.617-23.973-48.866 0-88.62 39.754-88.62 88.62s39.754 88.62 88.62 88.62c23.672 0 45.927-9.217 62.666-25.956.89-.89 2.328-.89 3.218 0 .888.89.888 2.33 0 3.22zM91.553 106.93c.04.06.083.12.125.18l.203.29.01-.006c1.71 2.27 4.415 3.742 7.468 3.742 3.054 0 5.758-1.473 7.467-3.742l.01.007.2-.285.13-.188 34.95-50.342v113.51c-12.31 7.425-26.723 11.7-42.115 11.7-15.932 0-30.81-4.582-43.397-12.492V56.583l34.95 50.346zM59.56 28.92C71.496 22.106 85.3 18.206 100 18.206c14.322 0 27.794 3.705 39.515 10.2l-40.157 57.84L59.56 28.923zm-21.164 17.33v107.496c-12.566-14.385-20.19-33.19-20.19-53.748 0-20.556 7.624-39.363 20.19-53.748zM160.32 155.186V44.816c13.33 14.557 21.476 33.937 21.476 55.184 0 21.248-8.147 40.627-21.477 55.186z"/></svg>